<svg width="15" height="15" fill="none" xmlns="http://www.w3.org/2000/svg"><path d="M13.333 2.5H1.667a.833.833 0 00-.834.833v8.334a.833.833 0 00.834.833h6.25l.237-.292.388-.475-.038-.066H1.667V3.333h11.666V6.9c.317.205.598.46.834.754v-4.32a.833.833 0 00-.834-.834z" fill="#fff"/><path d="M2.917 5H10v.667H2.917V5zm0 1.667H7.5v.666H2.917v-.666zm0 2.916h4.166v.667H2.917v-.667zm8.525-2.403a2.65 2.65 0 00-1.834 4.582l-.808.988.375 1.504 1.525-1.858c.483.143.996.143 1.48 0l1.524 1.858.375-1.504-.808-.988a2.65 2.65 0 00-1.834-4.583h.005zm0 4.45a1.796 1.796 0 111.82-1.797 1.812 1.812 0 01-1.82 1.796z" fill="#fff"/></svg>