<svg width="20" height="20" fill="none" xmlns="http://www.w3.org/2000/svg"><path d="M16.154 7.693h-1.539a2.31 2.31 0 00-2.308-2.308V3.846a3.851 3.851 0 013.847 3.847z" fill="#333"/><path d="M19.23 7.693h-1.538a5.39 5.39 0 00-5.385-5.385V.769a6.93 6.93 0 016.924 6.924zm-5.897 6.524l1.723-1.723a1.666 1.666 0 011.798-.369l2.098.84A1.667 1.667 0 0120 14.513v3.816a1.667 1.667 0 01-1.757 1.669C3.533 19.082.563 6.623.011 1.852A1.663 1.663 0 011.668 0h3.748a1.667 1.667 0 011.548 1.048l.84 2.098a1.667 1.667 0 01-.37 1.798L5.711 6.667s.955 6.717 7.622 7.55z" fill="#333"/></svg>