<svg width="45" height="40" fill="none" xmlns="http://www.w3.org/2000/svg"><path d="M43.093 14.524l-8.463-1.697-5.158-10.962c-.27-.574-.65-1.047-1.103-1.373A2.48 2.48 0 0026.89 0L5.276.224C4.65.231 4.045.49 3.54.966c-.506.476-.884 1.145-1.084 1.914L0 12.357v21.788h5.157c.4 1.695 1.209 3.178 2.305 4.232C8.56 39.431 9.887 40 11.25 40s2.69-.569 3.787-1.623c1.097-1.053 1.905-2.537 2.306-4.233h9.564c.4 1.696 1.209 3.18 2.305 4.233C30.31 39.431 31.637 40 33 40s2.69-.569 3.788-1.623c1.096-1.053 1.904-2.537 2.305-4.233H45V17.418c.002-.7-.189-1.378-.54-1.91-.35-.53-.835-.88-1.367-.983zM19.5 3.98l7.413-.077 4.135 8.788-11.548-.005V3.98zm-14.201.147L16.5 4.011v8.673l-13.417-.006 2.216-8.55zm5.951 31.97c-.668 0-1.32-.258-1.875-.74-.555-.483-.988-1.17-1.243-1.972a5.63 5.63 0 01-.192-2.537c.13-.851.452-1.634.924-2.248.472-.614 1.073-1.032 1.728-1.202a2.657 2.657 0 011.95.25c.616.332 1.143.895 1.514 1.617a5.38 5.38 0 01.569 2.44c-.001 1.164-.357 2.28-.99 3.104-.632.823-1.49 1.286-2.385 1.287zm21.75 0c-.667 0-1.32-.258-1.875-.74-.555-.483-.988-1.17-1.243-1.972a5.63 5.63 0 01-.192-2.537c.13-.851.451-1.634.923-2.248.473-.614 1.074-1.032 1.729-1.202a2.657 2.657 0 011.95.25c.616.332 1.143.895 1.514 1.617a5.38 5.38 0 01.569 2.44c-.001 1.164-.357 2.28-.99 3.104-.632.823-1.49 1.286-2.385 1.287zm9-5.856h-2.727c-.263-1.915-1.036-3.649-2.183-4.898-1.147-1.248-2.595-1.933-4.09-1.933-1.495 0-2.943.685-4.09 1.933-1.147 1.25-1.92 2.983-2.184 4.898h-9.202c-.264-1.915-1.037-3.649-2.184-4.898-1.147-1.248-2.595-1.933-4.09-1.933-1.496 0-2.943.685-4.09 1.933-1.147 1.25-1.92 2.983-2.184 4.898H3V16.583l30.987.065L42 18.254V30.24z" fill="#096FA9"/></svg>