<svg width="45" height="40" fill="none" xmlns="http://www.w3.org/2000/svg"><path d="M40 6.667H5c-.663 0-1.299.234-1.768.65-.469.417-.732.983-.732 1.572V31.11c0 .59.263 1.155.732 1.571.47.417 1.105.651 1.768.651h18.75l.712-.777 1.163-1.267-.113-.178H5V8.89h35v9.51a10.18 10.18 0 012.5 2.011V8.89c0-.59-.263-1.155-.732-1.571A2.667 2.667 0 0040 6.667z" fill="#096FA9"/><path d="M8.75 13.333H30v1.778H8.75v-1.778zm0 4.445H22.5v1.777H8.75v-1.777zm0 7.777h12.5v1.778H8.75v-1.777zm25.575-6.411a8.677 8.677 0 00-4.494 1.2c-1.328.792-2.356 1.922-2.95 3.242a6.335 6.335 0 00-.38 4.158c.347 1.387 1.157 2.65 2.324 3.623L26.4 34l1.125 4.011 4.575-4.955c1.448.38 2.99.38 4.438 0l4.575 4.955L42.236 34l-2.425-2.633c1.168-.973 1.977-2.236 2.324-3.623a6.334 6.334 0 00-.379-4.158c-.594-1.32-1.622-2.45-2.95-3.242a8.678 8.678 0 00-4.495-1.2h.013zm0 11.867a5.863 5.863 0 01-2.972-.84c-.877-.533-1.555-1.286-1.952-2.162a4.294 4.294 0 01-.276-2.761c.217-.925.735-1.772 1.492-2.435a5.634 5.634 0 012.76-1.292 6.014 6.014 0 013.102.284c.98.364 1.817.978 2.406 1.764a4.42 4.42 0 01.903 2.653c-.014 1.278-.596 2.5-1.62 3.397-1.023.898-2.405 1.398-3.843 1.392z" fill="#096FA9"/></svg>