<svg width="40" height="40" fill="none" xmlns="http://www.w3.org/2000/svg"><path d="M11.016 3.75l-.86.899-5.507 5.507-.899.86L12.735 20l-6.25 6.25-.079.391-1.367 6.875-.39 1.835 1.836-.39 6.875-1.367.39-.079 6.25-6.25 8.945 8.946.86-.898 5.508-5.508.898-.86L27.265 20l6.172-6.172a5.128 5.128 0 000-7.265 5.138 5.138 0 00-3.632-1.524 5.138 5.138 0 00-3.634 1.524L20 12.735 11.016 3.75zm0 3.555l2.421 2.46-1.836 1.837L13.4 13.4l1.836-1.836 2.968 2.968-3.71 3.711-7.227-7.226 3.75-3.711zm18.788.156c.65 0 1.31.293 1.875.859 1.128 1.129 1.128 2.584 0 3.711l-.819.82-3.712-3.711.82-.82c.567-.566 1.188-.859 1.837-.859h-.001zM25.39 10.9l3.71 3.711-15.116 15.115a8.725 8.725 0 00-3.712-3.71L25.39 10.899zm.117 10.859l2.968 2.968-1.875 1.875 1.8 1.798 1.875-1.875 2.382 2.382-3.75 3.75-7.148-7.148 3.75-3.75zm-16.835 6.25a6.21 6.21 0 013.32 3.32l-4.142.82.821-4.14z" fill="#096FA9"/></svg>