<svg width="40" height="40" fill="none" xmlns="http://www.w3.org/2000/svg"><path fill-rule="evenodd" clip-rule="evenodd" d="M16.731 1.689c-2.998 1.093-5.349 3.65-6.288 6.86-1.667.855-2.665 1.94-2.665 3.118 0 1.33 1.27 2.54 3.344 3.436A8.891 8.891 0 0020 24.436a8.889 8.889 0 008.878-9.333c2.073-.895 3.344-2.105 3.344-3.436 0-1.18-.998-2.263-2.667-3.118-.938-3.211-3.288-5.767-6.286-6.861A2.223 2.223 0 0021.11 0h-2.22a2.222 2.222 0 00-2.158 1.689zm1.047 4.978a1.111 1.111 0 001.11-1.111V2.222h2.223v3.334a1.111 1.111 0 102.222 0v-1.42c1.764.9 3.187 2.503 3.917 4.506a1.28 1.28 0 00-.009.04 1.535 1.535 0 01-.174.118c-.318.189-.843.396-1.57.584C24.062 9.76 22.075 10 20 10c-2.075 0-4.061-.241-5.498-.616-.727-.188-1.25-.395-1.569-.584a1.535 1.535 0 01-.174-.119l-.002-.01a.718.718 0 00-.007-.029c.73-2.003 2.153-3.608 3.917-4.506v1.42a1.111 1.111 0 001.11 1.11zm-6.285 3.842l-.036.018c-.675.345-1.083.674-1.297.92a.93.93 0 00-.153.22c.023.053.09.169.276.349.348.336.968.742 1.916 1.13 1.884.77 4.642 1.298 7.801 1.298s5.917-.527 7.8-1.3c.949-.386 1.569-.792 1.917-1.128.185-.18.253-.296.276-.35a.93.93 0 00-.153-.22c-.215-.245-.622-.574-1.297-.92l-.036-.017a3.842 3.842 0 01-.303.2c-.574.342-1.327.613-2.147.827-1.656.43-3.835.686-6.057.686-2.222 0-4.401-.255-6.057-.686-.82-.214-1.573-.485-2.147-.828a3.842 3.842 0 01-.303-.2zm18.511 1.189l-.004-.01.002.012.002-.002zm0-.065l-.003.011.002-.008v-.004l.001.001zm-20.006.007l-.001-.007.002.011v-.004h-.001zm0 .053v-.005.003l-.001.007v-.005zM26.66 15.86c-1.916.511-4.204.807-6.66.807-2.456 0-4.745-.297-6.66-.807a6.666 6.666 0 0013.32 0zm5.212 7.022a1.112 1.112 0 00-1.415-1.389 7.224 7.224 0 00-1.568 12.926v4.47A1.111 1.111 0 0029.999 40h5.557a1.111 1.111 0 001.11-1.111V34.42A7.224 7.224 0 0035.1 21.492a1.11 1.11 0 00-1.416 1.39c.01.03.018.06.025.091l.619 2.89a1.584 1.584 0 11-3.098 0l.619-2.89a.935.935 0 01.024-.09zm4.627 2.515l-.111-.525a5 5 0 01-1.34 7.917 1.111 1.111 0 00-.605 1.033l.001.067v3.889h-3.333V33.88l.001-.058a1.11 1.11 0 00-.604-1.033 5.001 5.001 0 01-1.34-7.917l-.111.525a3.805 3.805 0 107.442 0zm-22.774-.277l5.164 4.016v4.083c.228.058.583.114 1.111.114s.883-.055 1.111-.114v-4.33l2.222-1.667V40H0v-6.667c0-4.067 7.244-6.97 13.726-8.213zm-4.308 8.511l7.25-1.208v5.355h-8.89v-8.69A34.094 34.094 0 0111.5 27.9l-2.083 5.731zm-7.195 4.147h3.334v-7.69l-.083.043c-1.182.627-2.046 1.266-2.59 1.867-.534.59-.66 1.028-.66 1.335v4.445zM20 35.556a7.76 7.76 0 01-1.111-.075v2.297h2.222V35.48a7.759 7.759 0 01-1.111.075zm-3.389-5.377l-2.787-2.167-1.018 2.801 3.805-.633v-.001z" fill="#096FA9"/></svg>